<?xml version="1.0" encoding="utf-8"?>
<!-- Generator: Adobe Illustrator 23.0.1, SVG Export Plug-In . SVG Version: 6.00 Build 0)  -->
<svg version="1.1" id="Layer_1" xmlns="http://www.w3.org/2000/svg" xmlns:xlink="http://www.w3.org/1999/xlink" x="0px" y="0px"
	 viewBox="0 0 144 39.17" style="enable-background:new 0 0 144 39.17;" xml:space="preserve">
<style type="text/css">
	.st0{display:none;fill:#F26F31;}
	.st1{fill:#FFFFFF;}
</style>
<path class="st0" d="M160.93-121v-3.7c0-0.95-0.37-1.76-1-2.33c0.19-0.81,0.12-1.67-0.24-2.51c-0.57-1.37-1.74-2.19-3.13-2.19
	c-1.5,0-3.01,1.04-3.7,2.47c-0.11,0.01-0.22,0.01-0.33,0.03c-0.17,0.03-0.33,0.08-0.48,0.14v-3.92c0-0.41-0.11-0.82-0.33-1.18
	c-0.55-0.91-1.54-1.44-2.73-1.44c-1.53,0-3.12,0.84-3.96,2.09c-0.25,0.38-0.39,0.82-0.39,1.27v4.23c-0.87-0.48-1.92-0.75-3.08-0.75
	h-0.31c-0.98,0-1.97,0.21-2.84,0.64v-4.75c0-0.53-0.18-1.04-0.52-1.45c-0.42-0.51-1.24-1.13-2.71-1.13c-1.31,0-3.11,0.53-4.19,1.7
	c-0.14,0.16-0.26,0.33-0.36,0.52c-0.06-0.43-0.24-0.83-0.53-1.16c-0.42-0.49-1.22-1.07-2.66-1.07c-1.29,0-3.07,0.49-4.14,1.59
	c-0.41,0.42-0.65,0.99-0.65,1.59v4.18c-0.07,0-0.13-0.01-0.2-0.01c-1.36,0-3.16,0.42-4.2,1.46c-0.3-0.69-1-1.49-2.67-1.49
	c-1.42,0-3.57,0.38-4.61,1.63c-1.11-0.55-2.48-0.85-4.04-0.85c-0.22,0-0.4,0.01-0.52,0.01c-0.04,0-0.07,0-0.11,0
	c-0.47-0.45-1.21-0.79-2.31-0.79c-1.64,0-3.94,0.61-4.74,2.21c-1.36-1.06-3.05-1.5-4.57-1.5c-0.21,0-0.39,0.01-0.52,0.02
	c-0.08,0-0.17,0-0.26,0c-1.81,0-3.85,0.62-5.3,2.17c-1.25-1.34-3.26-2.11-5.77-2.11c-0.21,0-0.38,0.01-0.5,0.01
	c-0.03,0-0.07,0-0.11,0c-0.48-0.45-1.21-0.79-2.31-0.79c-1.06,0-2.4,0.26-3.42,0.87c-0.47-0.39-1.17-0.66-2.17-0.66
	c-1.32,0-3.53,0.4-4.53,1.72c-0.57-0.8-1.58-1.38-3.1-1.38c-0.51,0-1.03,0.07-1.52,0.2v-7.44c0-0.46-0.14-0.91-0.4-1.29
	c-0.61-0.89-1.65-1.38-2.92-1.38c-1.45,0-3.42,0.67-4.56,2.15c-0.31,0.4-0.47,0.89-0.47,1.39v6.42l-0.14,0.02v-7.33
	c0-0.48-0.15-0.96-0.44-1.35c-0.61-0.84-1.63-1.3-2.87-1.3c-1.43,0-3.38,0.63-4.52,2.03c-0.33,0.41-0.51,0.91-0.51,1.44v8.01
	c-0.06,0.06-0.12,0.13-0.18,0.2c-1.08,1.35-0.61,3.4,0.18,4.79v7.7c0,0.83,0.45,1.59,1.17,1.99c0.54,0.3,1.18,0.45,1.9,0.45
	c1.88,0,4.22-1.01,5.08-2.93c0.13-0.29,0.2-0.61,0.2-0.93v-5.15l0.14-0.02v8.1c0,0.81,0.43,1.56,1.12,1.96
	c0.55,0.32,1.21,0.49,1.95,0.49c1.85,0,4.27-1.08,5.1-3.08c0.03-0.06,0.04-0.13,0.06-0.19c1.15,0.59,2.62,0.91,4.34,0.91
	c0.1,0,0.19,0,0.27,0c0.12,0.01,0.29,0.01,0.52,0.01c2.28,0,4.12-0.57,5.37-1.58c0.47,0.5,1.23,0.88,2.4,0.88
	c1.36,0,3.15-0.41,4.19-1.45c0.3,0.69,1,1.49,2.67,1.49c0.24,0,0.5-0.02,0.77-0.05c-1.13,1.59-1.54,3.43-1.09,5.15
	c0.81,3.17,4.13,5.21,8.45,5.21c1.01,0,2.04-0.11,3.06-0.34c2.29-0.5,4.36-1.53,5.84-2.89c1.99-1.84,2.79-4.19,2.22-6.44
	c-0.08-0.31-0.19-0.6-0.32-0.89c0.5-0.12,0.99-0.29,1.43-0.51c0,0.37,0.02,0.74,0.08,1.1c0.33,2.8,2.66,4.89,6.41,5.74
	c1.33,0.36,2.76,0.54,4.15,0.54c0.15,0,0.31,0,0.46-0.01c3.53-0.11,6.3-1.37,8.03-3.62c0.92-1.2,1.2-2.59,1.26-3.94
	c0.03,0,0.05,0,0.08,0c1.67,0,3.87-0.76,4.74-2.41v1.18c0,0.87,0.49,1.66,1.27,2.04c0.5,0.24,1.08,0.37,1.73,0.37
	c1.58,0,3.54-0.73,4.51-2.11c0.93,0.51,2.01,0.76,3.08,0.76h0.05c0.48,0.45,1.17,0.75,2.07,0.75l0,0c0.51,0,1.05-0.1,1.57-0.27
	c0.11,0.6,0.45,1.13,0.97,1.47c0.52,0.35,1.17,0.53,1.86,0.53c1.58,0,3.61-0.99,4.35-2.83l0.24,0.22c0.43,0.39,0.97,0.59,1.51,0.59
	c0.31,0,0.62-0.07,0.92-0.2c0.59,0.58,1.43,0.93,2.41,0.93l0,0c0.67,0,1.33-0.17,1.93-0.47C159.08-112.99,160.73-114.68,160.93-121z
	"/>
<g>
	<path class="st1" d="M35.13,22.81c0-3.45,0-6.9,0-10.35c0-0.74-4.61-0.16-4.61,1c0,3.14,0,6.29,0,9.43h0.01
		c0.02,0.42-0.04,2.06-2.14,2.19c-2.34-0.04-2.3-1.83-2.26-2.19h0.01c0-3.09,0-6.17,0-9.25c0-1.8-4.64-1.11-4.64,0.37
		c0,2.93,0,5.86,0,8.79h-0.02c0,4.08,5.41,4.15,6.71,4.11c0.5,0.03,6.85,0.35,6.94-4.01l0,0c0-0.01,0-0.01,0-0.02
		C35.13,22.85,35.14,22.84,35.13,22.81L35.13,22.81z"/>
	<path class="st1" d="M51.31,24.73c0-2.42,0-4.83,0-7.25h0.01c0-0.03-0.01-0.05-0.01-0.07c0-0.17,0-0.35,0-0.52h-0.04
		c-0.5-4.36-6.36-4.06-6.89-4.02c-0.4-0.01-1.18-0.01-2.07,0.12c0-0.25,0-0.49,0-0.73c0-0.87-4.61-0.2-4.61,1.13
		c0,1.26,0,2.53,0,3.79c-0.01,0.11-0.03,0.2-0.03,0.32h0.03c0,2.72,0,5.44,0,8.16c0,0.87,4.61,0.2,4.61-1.13c0-2.35,0-4.71,0-7.06
		h0.02c0,0-0.34-2.48,2.26-2.53c1.68,0.12,2.05,1.32,2.12,2.04c0,2.96,0,5.93,0,8.89C46.69,26.43,51.31,25.86,51.31,24.73z"/>
	<path class="st1" d="M79.5,19.38c1.1-0.25,1.81-1.1,1.86-1.9h0.72c0-5-6.39-4.65-6.94-4.62c-0.4-0.01-1.18-0.01-2.08,0.12
		c0-0.25,0-0.49,0-0.73c0-0.87-4.61-0.2-4.61,1.13c0,1.26,0,2.52,0,3.78c-0.01,0.11-0.03,0.21-0.03,0.33h0.03c0,2.72,0,5.44,0,8.16
		c0,0.87,4.61,0.2,4.61-1.13c0-2.35,0-4.71,0-7.06h0.02c0,0-0.34-2.48,2.26-2.53c1.63,0.11,2.03,1.26,2.11,1.98l-0.34,0.16
		C74.99,18.53,77.91,19.86,79.5,19.38z"/>
	<path class="st1" d="M96.62,25c0-0.02,0.02-0.05,0.02-0.07c0-0.12,0-0.24,0-0.36c0-0.89,0-1.79,0-2.68
		c0.01-0.09,0.02-0.19,0.04-0.28c0.04-0.19,0.01-0.35-0.04-0.49c0-0.11,0-0.23,0-0.34c0.01-0.11,0.03-0.2,0.03-0.32h-0.03
		c0-2.6,0-5.19,0-7.79c0-0.12,0-0.24,0-0.36c0-0.87-4.61-0.2-4.61,1.13c0,0.12,0,0.24,0,0.36c0,2.23,0,4.46,0,6.7H92
		c0,0,0.34,2.48-2.26,2.53c-1.67-0.12-2.05-1.32-2.12-2.04c0-2.97,0-5.93,0-8.89c0-0.57-4.61,0-4.61,1.13c0,2.42,0,4.83,0,7.25l0,0
		c0,0.03,0,0.05,0,0.07c0,0.17,0,0.35,0,0.52h0.05c0.5,4.36,6.37,4.06,6.89,4.02c0.39,0.01,1.14,0.02,2.01-0.11
		c0.13,3.01,0.32,6.41-3.25,6.68c-3.79,0.29-8.65-1.6-7.42-5.68c0.56-1.84-4.14-1.28-4.65,0.4c-0.29,0.96-0.33,1.83-0.17,2.6
		c0.27,2.69,2.98,4.23,6.02,4.9c1.71,0.46,3.54,0.65,5.12,0.6c3.18-0.1,6.18-1.03,8.07-3.48C96.89,29.44,96.74,27.16,96.62,25z"/>
	<path class="st1" d="M63.7,26.27v-1.72c1.32-0.81,2.47-2.28,2.69-4.97h0.04c0-0.16-0.01-0.3-0.01-0.45
		c0.01-0.15,0.01-0.3,0.01-0.45h-0.04c-0.5-6.35-6.28-5.95-6.9-5.89c-1.23-0.07-6.2,0.03-6.68,5.87h-0.04
		c0,0.16,0.01,0.32,0.01,0.47s-0.01,0.31-0.01,0.47h0.04c0.48,5.84,5.45,5.94,6.68,5.87c0.16,0.02,0.66,0.06,1.33-0.01v0.61
		c-0.93,0.03-1.88,0.14-2.82,0.35c-2.44,0.53-4.61,1.58-6.12,2.98c-1.73,1.59-2.46,3.53-2,5.32c0.7,2.7,3.84,4.45,8.01,4.45
		c1.08,0,2.2-0.12,3.3-0.36c2.44-0.53,4.61-1.58,6.12-2.97c1.73-1.6,2.46-3.53,2-5.33C68.75,28.36,66.64,26.81,63.7,26.27z
		 M59.7,22.44c-1.8-0.05-2.19-1.81-2.27-2.89l0,0v-0.01c0-0.08,0-0.16-0.01-0.24c0-0.01,0-0.02,0-0.03
		c-0.01-0.05-0.01-0.1-0.01-0.15s0-0.09,0.01-0.14c0-0.01,0-0.02,0-0.03c0-0.08,0.01-0.15,0.01-0.24l0,0l0,0
		c0.08-1.09,0.47-2.84,2.27-2.89c1.85,0.19,2.11,2.34,2.13,3.31C61.81,20.1,61.55,22.25,59.7,22.44z M64.49,33.27
		c-0.98,0.9-2.52,1.63-4.21,2c-0.81,0.17-1.61,0.26-2.39,0.26c-2.12,0-3.9-0.71-4.14-1.65c-0.14-0.54,0.21-1.24,0.95-1.92
		c0.98-0.9,2.51-1.63,4.21-2c0.8-0.17,1.61-0.26,2.38-0.26c2.12,0,3.9,0.71,4.15,1.65C65.58,31.89,65.23,32.58,64.49,33.27z"/>
	<path class="st1" d="M19.54,0.51c-0.72-1.04-3.73-0.41-4.91,1.11V12.3L8.7,13.02V0.48C7.98-0.49,4.97,0.09,3.8,1.52v12.1
		l-0.86,0.11c-0.44,0.55,0.05,2.43,0.86,3.41v10.63c1.17,0.64,4.19-0.2,4.9-1.8V16.9l5.93-0.73v13.52c1.17,0.68,4.19-0.21,4.91-1.92
		v-12.2l0.98-0.12c0.2-0.74-0.27-2.29-0.98-3.14C19.54,12.31,19.54,0.51,19.54,0.51z"/>
	<path class="st1" d="M137.62,11.09c2.08,0.67,3.64-0.88,2.86-2.73C139.26,5.47,134.94,9.48,137.62,11.09z"/>
	<path class="st1" d="M138.25,13.79c0,3.75,0,7.49,0,11.24c0,1.94,3.58,1.17,3.58-0.41c0-3.75,0-7.49,0-11.24
		C141.83,11.44,138.25,12.21,138.25,13.79z"/>
	<path class="st1" d="M134.46,10.46l-3.98,3.88V2.84c-0.54-0.89-2.81-0.35-3.7,0.95v14.15l-1.44,1.4c-0.02,0.49,0.68,1.32,1.44,1.85
		v6.43c0.88,0.58,3.16-0.18,3.7-1.64v-5.14l4.88,4.41c0.65-0.5,1.65-2.38,1.5-3.17l-4.95-4.47l5.24-5.11
		C136.88,11.66,135.31,10.31,134.46,10.46z"/>
	<path class="st1" d="M108.59,3.82v10.23l-5.41-6.76V2.95c-0.64-0.74-3.4-0.3-4.47,0.8v20.99c1.07,0.49,3.83-0.15,4.47-1.37V12.1
		l5.41,6.76v7.35c1.07,0.52,3.82-0.16,4.48-1.46V2.98C112.41,2.19,109.66,2.67,108.59,3.82z"/>
	<path class="st1" d="M119.77,11.08c-1.06-0.04-4.76,0.14-4.76,4.46l3.36-0.03c0,0-0.22-2.19,1.4-2.42
		c1.62,0.23,1.42,2.71,1.42,2.85c-0.65-0.13-6.46-0.48-6.51,4.27l0,0c0,0.01,0,0.02,0,0.03s0,0.02,0,0.03l0,0
		c0.04,4.75,4.61,4.42,5.01,4.38c0.29,0.01,0.85,0.01,1.5-0.11c0,0.23,0,0.46,0,0.7c0,0.84,3.33,0.2,3.33-1.09c0-1.47,0-9.21,0-9.37
		c0-0.05-0.02-0.11-0.04-0.16C123.98,11.2,120.74,11.04,119.77,11.08z M121.17,20.23v0.01l0,0c0.02,0.19,0.16,2.38-1.63,2.42
		c-1.54-0.14-1.56-1.98-1.54-2.39l0,0c0,0,0-0.02,0-0.04c0-0.02,0-0.04,0-0.04l0,0c-0.02-0.41,0-2.25,1.54-2.39
		C121.33,17.84,121.19,20.03,121.17,20.23L121.17,20.23L121.17,20.23z"/>
</g>
</svg>
